{
.appVersion = "3241";
.formatVersion = 3;
DisplayStrings = (
"b//acc: 
  
Accelerationism
and the Bahá’í Faith  

Eli Heuer  ",
"    ABCDEFGHIJKLMNOPQRSTUVWXYZ
abcdefghijklmnopqrstuvwxyz
1234567890  


Font.Garden

Basics

Open Design Now 

Programming with GNU Software

Die GNU Typographie

Designing the User Interface

Finite Mathematics with Applications
",
"ABCDEFGHIJ
KLMNOPQRS
TUVWXYZ
1234567890
abcdefghijklm
nopqrstuvwxyz
Rena Regular",
"Libre Software
and the International
Typographic Style. 

 

",
" Eli Heuer 
nnnnnnnnnnnn oooooooooooonoooooooooooo nnnnnnnnnnnnnnnnnononoooo oooonononnnnnoooonononnnn nnnnononoooonHHHHHHHHHHHH OOOOOOOOOOOOnOOOOOOOOOOOO HHHHHHHHHHHHnHHHHOHOHOOOO OOOOHOHOHHHHnOOOOHOHOHHHH HHHHOHOHOOOOnHHnnHOHOnnOO HHooHOHOooOOnnnHHHOHOOOnn OOooHOHOHHoonnnHHnonoHHoo nnOOnonoOOoonnnanonoaoo uuanonoaoonuuannonooaoo HHAHOHOAOO 
",
" Crypto and Free Informatifion  

The problem of monetizing digital content is reproducible information is effectively infinite in supply, leaving it impossible to price, free like air. Primitive attempts at digital monetization try to create an artificial scarcity through paywalls and DRM, technically ineffective against any piracy but backed by socialized pressure and threats of legal action. These models of course unethically restrict the free flow of information.   

NFTs and memecoins are an alternative form of creating artificial digital scarcity, so it’s easy to make the intuitive leap that they also negatively limit free information. However, by changing the value proposition of digital goods from a scarcity based on limiting information access to one based on provable provenance, they have no need to rely on gatekeeping access to NFT content to secure value. This is a great boon for the freedom of information movement.


glyphs = (
{
color = 5;
glyphname = A;
kernLeft = A;
kernRight = A;
lastChange = "2024-05-24 00:52:02 +0000";
layers = (
{
layerId = m01;
shapes = (
{
closed = 1;
nodes = (
(84,0,l),
(100,16,l),
(176,216,l),
(192,232,l),
(528,232,l),
(544,216,l),
(620,16,l),
(636,0,l),
(688,0,l),
(704,16,l),
(704,104,l),
(440,784,l),
(420,800,l),
(296,800,l),
(280,784,l),
(16,104,l),
(16,16,l),
(32,0,l)
);
},
{
closed = 1;
nodes = (
(220,340,l),
(352,696,l),
(368,696,l),
(500,340,l),
(488,328,l),
(232,328,l)
);
}
);
width = 720;
}
);
unicode = 65;
},
{
color = 5;
glyphname = B;
kernLeft = H;
kernRight = B;
lastChange = "2024-05-19 04:07:38 +0000";
layers = (
{
layerId = m01;
shapes = (
{
closed = 1;
nodes = (
(440,0,ls),
(596,0,o),
(696,76,o),
(696,232,cs),
(696,336,o),
(628,396,o),
(560,420,c),
(560,436,l),
(616,464,o),
(660,508,o),
(660,596,cs),
(660,736,o),
(544,800,o),
(404,800,cs),
(72,800,l),
(56,784,l),
(56,16,l),
(72,0,l)
);
},
{
closed = 1;
nodes = (
(168,476,l),
(168,692,l),
(180,704,l),
(400,704,ls),
(496,704,o),
(544,672,o),
(544,584,cs),
(544,496,o),
(496,464,o),
(400,464,cs),
(180,464,l)
);
},
{
closed = 1;
nodes = (
(168,108,l),
(168,356,l),
(180,368,l),
(440,368,ls),
(532,368,o),
(580,328,o),
(580,232,cs),
(580,136,o),
(532,96,o),
(440,96,cs),
(180,96,l)
);
}
);
width = 728;
}
);
unicode = 66;
},
{
color = 0;
glyphname = C;
kernLeft = O;
kernRight = C;
lastChange = "2024-05-20 00:39:32 +0000";
layers = (
{
layerId = m01;
shapes = (
{
closed = 1;
nodes = (
(624,-16,o),
(720,136,o),
(736,268,c),
(720,284,l),
(640,284,l),
(624,268,l),
(608,176,o),
(548,84,o),
(400,84,cs),
(232,84,o),
(156,216,o),
(156,400,cs),
(156,584,o),
(232,716,o),
(400,716,cs),
(548,716,o),
(600,656,o),
(620,576,c),
(636,560,l),
(716,560,l),
(732,576,l),
(716,712,o),
(616,816,o),
(400,816,cs),
(168,816,o),
(40,648,o),
(40,400,cs),
(40,152,o),
(168,-16,o),
(400,-16,cs)
);
}
);
width = 752;
},
{
associatedMasterId = m01;
layerId = "64175680-2DAC-4C0C-AE61-49F6460695C3";
name = "Mar 25, 24 at 23:29";
shapes = (
{
closed = 1;
nodes = (
(664,-16,o),
(792,152,o),
(792,400,cs),
(792,648,o),
(664,816,o),
(416,816,cs),
(168,816,o),
(40,648,o),
(40,400,cs),
(40,152,o),
(168,-16,o),
(416,-16,cs)
);
},
{
closed = 1;
nodes = (
(232,88,o),
(152,216,o),
(152,400,cs),
(152,584,o),
(232,712,o),
(416,712,cs),
(600,712,o),
(680,584,o),
(680,400,cs),
(680,216,o),
(600,88,o),
(416,88,cs)
);
}
);
width = 832;
}
);
unicode = 67;
},
{
color = 5;
glyphname = D;
kernLeft = H;
kernRight = O;
lastChange = "2024-05-20 00:50:10 +0000";
layers = (
{
layerId = m01;
shapes = (
{
closed = 1;
nodes = (
(348,0,ls),
(588,0,o),
(704,160,o),
(704,400,cs),
(704,640,o),
(588,800,o),
(348,800,cs),
(72,800,l),
(56,784,l),
(56,16,l),
(72,0,l)
);
},
{
closed = 1;
nodes = (
(168,108,l),
(168,692,l),
(180,704,l),
(312,704,ls),
(508,704,o),
(588,596,o),
(588,400,cs),
(588,208,o),
(508,96,o),
(312,96,cs),
(180,96,l)
);
}
);
width = 744;
}
);
unicode = 68;
},
{
color = 5;
glyphname = E;
kernLeft = H;
kernRight = E;
lastChange = "2024-05-20 01:42:27 +0000";
layers = (
{
layerId = m01;
shapes = (
{
closed = 1;
nodes = (
(600,0,l),
(616,16,l),
(616,80,l),
(600,96,l),
(200,96,l),
(184,112,l),
(184,352,l),
(200,368,l),
(576,368,l),
(592,384,l),
(592,448,l),
(576,464,l),
(200,464,l),
(184,480,l),
(184,688,l),
(200,704,l),
(600,704,l),
(616,720,l),
(616,784,l),
(600,800,l),
(88,800,l),
(72,784,l),
(72,16,l),
(88,0,l)
);
}
);
width = 672;
}
);
unicode = 69;
},
{
color = 5;
glyphname = F;
kernLeft = H;
kernRight = F;
lastChange = "2024-05-20 01:42:38 +0000";
layers = (
{
layerId = m01;
shapes = (
{
closed = 1;
nodes = (
(160,0,l),
(176,16,l),
(176,344,l),
(188,356,l),
(504,356,l),
(520,372,l),
(520,436,l),
(504,452,l),
(188,452,l),
(176,464,l),
(176,692,l),
(188,704,l),
(568,704,l),
(584,720,l),
(584,784,l),
(568,800,l),
(80,800,l),
(64,784,l),
(64,16,l),
(80,0,l)
);
}
);
width = 616;
}
);
unicode = 70;
},
{
color = 5;
glyphname = G;
kernLeft = G;
kernRight = G;
lastChange = "2024-05-23 18:42:57 +0000";
layers = (
{
layerId = m01;
shapes = (
{
closed = 1;
nodes = (
(524,-16,o),
(612,44,o),
(668,128,c),
(684,128,l),
(684,16,l),
(700,0,l),
(760,0,l),
(776,16,l),
(776,416,l),
(760,432,l),
(448,432,l),
(432,416,l),
(432,352,l),
(448,336,l),
(660,336,l),
(672,324,l),
(672,212,o),
(584,84,o),
(416,84,cs),
(232,84,o),
(156,216,o),
(156,400,cs),
(156,584,o),
(232,716,o),
(416,716,cs),
(560,716,o),
(640,640,o),
(652,576,c),
(668,560,l),
(744,560,l),
(760,576,l),
(760,688,o),
(652,816,o),
(416,816,cs),
(176,816,o),
(40,640,o),
(40,400,cs),
(40,152,o),
(172,-16,o),
(404,-16,cs)
);
}
);
width = 816;
},
{
associatedMasterId = m01;
layerId = "51D1C8E2-FE34-4DA9-B6DB-6F3F79AC0821";
name = "Mar 13, 24 at 21:47";
shapes = (
{
closed = 1;
nodes = (
(664,-16,o),
(792,152,o),
(792,400,cs),
(792,648,o),
(664,816,o),
(416,816,cs),
(168,816,o),
(40,648,o),
(40,400,cs),
(40,152,o),
(168,-16,o),
(416,-16,cs)
);
},
{
closed = 1;
nodes = (
(232,88,o),
(152,216,o),
(152,400,cs),
(152,584,o),
(232,712,o),
(416,712,cs),
(600,712,o),
(680,584,o),
(680,400,cs),
(680,216,o),
(600,88,o),
(416,88,cs)
);
}
);
visible = 1;
width = 780;
}
);
unicode = 71;
},
{
color = 5;
glyphname = H;
kernLeft = H;
kernRight = H;
lastChange = "2024-05-24 00:49:52 +0000";
layers = (
{
layerId = m01;
shapes = (
{
closed = 1;
nodes = (
(168,0,l),
(184,16,l),
(184,360,l),
(196,372,l),
(584,372,l),
(596,360,l),
(596,16,l),
(612,0,l),
(692,0,l),
(708,16,l),
(708,784,l),
(692,800,l),
(612,800,l),
(596,784,l),
(596,480,l),
(584,468,l),
(196,468,l),
(184,480,l),
(184,784,l),
(168,800,l),
(88,800,l),
(72,784,l),
(72,16,l),
(88,0,l)
);
}
);
width = 780;
}
);
unicode = 72;
},
{
color = 5;
glyphname = I;
lastChange = "2024-05-23 18:46:46 +0000";
layers = (
{
layerId = m01;
shapes = (
{
closed = 1;
nodes = (
(160,0,l),
(176,16,l),
(176,784,l),
(160,800,l),
(80,800,l),
(64,784,l),
(64,16,l),
(80,0,l)
);
}
);
width = 240;
}
);
unicode = 73;
},
{
color = 5;
glyphname = J;
lastChange = "2024-05-23 19:17:09 +0000";
layers = (
{
layerId = m01;
shapes = (
{
closed = 1;
nodes = (
(400,-16,o),
(480,72,o),
(480,224,cs),
(480,784,l),
(464,800,l),
(384,800,l),
(368,784,l),
(368,224,ls),
(368,140,o),
(332,84,o),
(248,84,cs),
(164,84,o),
(128,140,o),
(128,224,cs),
(128,260,l),
(112,276,l),
(32,276,l),
(16,260,l),
(16,224,ls),
(16,72,o),
(96,-16,o),
(248,-16,cs)
);
}
);
width = 524;
}
);
unicode = 74;
},
{
color = 5;
glyphname = K;
lastChange = "2024-05-23 20:25:36 +0000";
layers = (
{
layerId = m01;
shapes = (
{
closed = 1;
nodes = (
(144,0,l),
(160,16,l),
(160,276,l),
(284,396,l),
(296,396,l),
(580,12,l),
(596,0,l),
(640,0,l),
(656,16,l),
(656,84,l),
(372,468,l),
(372,480,l),
(620,720,l),
(620,784,l),
(604,800,l),
(568,800,l),
(544,784,l),
(172,428,l),
(160,428,l),
(160,784,l),
(144,800,l),
(64,800,l),
(48,784,l),
(48,16,l),
(64,0,l)
);
}
);
width = 680;
}
);
unicode = 75;
},
{
color = 5;
glyphname = L;
lastChange = "2024-05-23 21:53:56 +0000";
layers = (
{
layerId = m01;
shapes = (
{
closed = 1;
nodes = (
(548,0,l),
(564,16,l),
(564,80,l),
(548,96,l),
(176,96,l),
(160,112,l),
(160,784,l),
(144,800,l),
(64,800,l),
(48,784,l),
(48,16,l),
(64,0,l)
);
}
);
width = 588;
}
);
unicode = 76;
},
{
color = 5;
glyphname = M;
lastChange = "2024-05-24 00:51:22 +0000";
layers = (
{
layerId = m01;
shapes = (
{
closed = 1;
nodes = (
(168,0,l),
(184,16,l),
(184,704,l),
(200,704,l),
(384,16,l),
(400,0,l),
(544,0,l),
(560,16,l),
(744,704,l),
(760,704,l),
(760,16,l),
(776,0,l),
(856,0,l),
(872,16,l),
(872,784,l),
(856,800,l),
(676,800,l),
(660,784,l),
(480,96,l),
(464,96,l),
(284,784,l),
(268,800,l),
(88,800,l),
(72,784,l),
(72,16,l),
(88,0,l)
);
}
);
width = 944;
}
);
unicode = 77;
},
{
color = 5;
glyphname = N;
lastChange = "2024-05-24 00:51:45 +0000";
layers = (
{
layerId = m01;
shapes = (
{
closed = 1;
nodes = (
(172,0,l),
(188,16,l),
(188,704,l),
(204,704,l),
(220,656,l),
(520,16,l),
(536,0,l),
(692,0,l),
(708,16,l),
(708,784,l),
(692,800,l),
(612,800,l),
(596,784,l),
(596,96,l),
(580,96,l),
(564,144,l),
(264,784,l),
(248,800,l),
(92,800,l),
(76,784,l),
(76,16,l),
(92,0,l)
);
}
);
width = 780;
},
{
associatedMasterId = m01;
layerId = "E2569265-7C88-453B-BEBD-B2DB63C45648";
name = "Mar 29, 24 at 01:53";
shapes = (
{
closed = 1;
nodes = (
(708,12,l),
(708,800,l),
(692,812,l),
(600,812,l),
(588,800,l),
(588,196,l),
(576,196,l),
(188,800,l),
(160,812,l),
(56,808,l),
(44,800,l),
(44,12,l),
(56,0,l),
(148,0,l),
(160,12,l),
(160,608,l),
(172,612,l),
(564,12,l),
(588,0,l),
(692,0,l)
);
}
);
visible = 1;
width = 748;
}
);
unicode = 78;
},
{
color = 5;
glyphname = O;
kernLeft = O;
kernRight = O;
lastChange = "2024-05-29 19:59:03 +0000";
layers = (
{
layerId = m01;
shapes = (
{
closed = 1;
nodes = (
(664,-16,o),
(792,152,o),
(792,400,cs),
(792,648,o),
(664,816,o),
(416,816,cs),
(168,816,o),
(40,648,o),
(40,400,cs),
(40,152,o),
(168,-16,o),
(416,-16,cs)
);
},
{
closed = 1;
nodes = (
(232,84,o),
(156,216,o),
(156,400,cs),
(156,584,o),
(232,716,o),
(416,716,cs),
(600,716,o),
(676,584,o),
(676,400,cs),
(676,216,o),
(600,84,o),
(416,84,cs)
);
}
);
width = 832;
}
);
unicode = 79;
},
{
color = 5;
glyphname = P;
lastChange = "2024-05-29 20:13:52 +0000";
layers = (
{
layerId = m01;
shapes = (
{
closed = 1;
nodes = (
(160,0,l),
(176,16,l),
(176,332,l),
(188,344,l),
(380,344,ls),
(528,344,o),
(644,412,o),
(644,572,cs),
(644,732,o),
(540,800,o),
(380,800,cs),
(80,800,l),
(64,784,l),
(64,16,l),
(80,0,l)
);
},
{
closed = 1;
nodes = (
(176,452,l),
(176,692,l),
(188,704,l),
(380,704,ls),
(484,704,o),
(528,664,o),
(528,572,cs),
(528,480,o),
(484,440,o),
(380,440,cs),
(188,440,l)
);
}
);
width = 660;
}
);
unicode = 80;
},
{
color = 5;
glyphname = Q;
lastChange = "2024-05-29 20:24:52 +0000";
layers = (
{
layerId = m01;
shapes = (
{
closed = 1;
nodes = (
(496,-16,o),
(572,12,o),
(628,48,c),
(644,48,l),
(688,0,l),
(744,0,l),
(760,16,l),
(760,92,l),
(724,128,l),
(724,144,l),
(768,216,o),
(792,276,o),
(792,400,cs),
(792,640,o),
(656,816,o),
(416,816,cs),
(176,816,o),
(40,640,o),
(40,400,cs),
(40,160,o),
(176,-16,o),
(416,-16,cs)
);
},
{
closed = 1;
nodes = (
(244,88,o),
(152,216,o),
(152,400,cs),
(152,584,o),
(244,708,o),
(416,708,cs),
(588,708,o),
(680,584,o),
(680,400,cs),
(680,320,o),
(668,264,o),
(644,216,c),
(628,216,l),
(484,368,l),
(468,384,l),
(432,384,l),
(416,368,l),
(416,284,l),
(428,268,l),
(552,144,l),
(552,128,l),
(520,104,o),
(472,88,o),
(416,88,cs)
);
}
);
width = 832;
},
{
associatedMasterId = m01;
layerId = "2C78FD2B-36BB-40A6-BDF4-5CB38705A6DA";
name = "May 29, 24 at 13:24";
shapes = (
{
closed = 1;
nodes = (
(664,-16,o),
(792,152,o),
(792,400,cs),
(792,648,o),
(664,816,o),
(416,816,cs),
(168,816,o),
(40,648,o),
(40,400,cs),
(40,152,o),
(168,-16,o),
(416,-16,cs)
);
},
{
closed = 1;
nodes = (
(232,84,o),
(156,216,o),
(156,400,cs),
(156,584,o),
(232,716,o),
(416,716,cs),
(600,716,o),
(676,584,o),
(676,400,cs),
(676,216,o),
(600,84,o),
(416,84,cs)
);
}
);
width = 832;
}
);
unicode = 81;
},
{
color = 5;
glyphname = R;
kernLeft = R;
kernRight = R;
lastChange = "2024-05-29 20:23:07 +0000";
layers = (
{
layerId = m01;
shapes = (
{
closed = 1;
nodes = (
(168,452,l),
(168,692,l),
(180,704,l),
(408,704,ls),
(500,704,o),
(556,676,o),
(556,576,cs),
(556,476,o),
(500,440,o),
(408,440,cs),
(180,440,l)
);
},
{
closed = 1;
nodes = (
(152,0,l),
(168,16,l),
(168,332,l),
(180,344,l),
(356,344,l),
(372,328,l),
(576,16,l),
(592,0,l),
(648,0,l),
(664,16,l),
(664,80,l),
(492,336,l),
(492,352,l),
(596,364,o),
(672,440,o),
(672,576,cs),
(672,740,o),
(556,800,o),
(392,800,cs),
(72,800,l),
(56,784,l),
(56,16,l),
(72,0,l)
);
}
);
width = 712;
}
);
unicode = 82;
},
{
color = 5;
glyphname = S;
lastChange = "2024-05-29 20:23:28 +0000";
layers = (
{
backgroundImage = {
imagePath = "/Users/eli/Desktop/Screenshot 2024-05-23 at 9.01.54 PM.png";
locked = 1;
pos = (-3596,-488);
scale = (9.75,9.75);
};
layerId = m01;
shapes = (
{
closed = 1;
nodes = (
(560,-16,o),
(652,92,o),
(652,216,cs),
(652,376,o),
(536,436,o),
(376,456,cs),
(216,480,o),
(160,504,o),
(160,596,cs),
(160,664,o),
(216,708,o),
(320,708,cs),
(468,708,o),
(512,668,o),
(512,576,c),
(528,560,l),
(612,560,l),
(628,576,l),
(628,748,o),
(504,816,o),
(332,816,cs),
(124,816,o),
(44,696,o),
(44,596,cs),
(44,456,o),
(148,388,o),
(308,368,cs),
(468,344,o),
(536,320,o),
(536,216,cs),
(536,128,o),
(448,92,o),
(344,92,cs),
(208,92,o),
(136,132,o),
(136,248,c),
(120,264,l),
(36,264,l),
(20,248,l),
(20,76,o),
(148,-16,o),
(344,-16,cs)
);
}
);
width = 676;
}
);
unicode = 83;
},
{
color = 5;
glyphname = T;
kernLeft = T;
kernRight = T;
lastChange = "2024-04-14 20:50:48 +0000";
layers = (
{
layerId = m01;
shapes = (
{
closed = 1;
nodes = (
(336,0,l),
(352,16,l),
(352,688,l),
(364,700,l),
(568,700,l),
(584,716,l),
(584,784,l),
(568,800,l),
(24,800,l),
(8,784,l),
(8,716,l),
(24,700,l),
(228,700,l),
(240,688,l),
(240,16,l),
(256,0,l)
);
}
);
width = 592;
}
);
unicode = 84;
},
{
color = 5;
glyphname = U;
lastChange = "2024-04-14 10:38:22 +0000";
layers = (
{
layerId = m01;
shapes = (
{
closed = 1;
nodes = (
(556,-16,o),
(664,100,o),
(664,300,cs),
(664,784,l),
(648,800,l),
(568,800,l),
(552,784,l),
(552,316,ls),
(552,176,o),
(484,88,o),
(356,88,cs),
(228,88,o),
(160,176,o),
(160,316,cs),
(160,784,l),
(144,800,l),
(64,800,l),
(48,784,l),
(48,300,ls),
(48,100,o),
(156,-16,o),
(356,-16,cs)
);
}
);
width = 712;
}
);
unicode = 85;
},
{
color = 5;
glyphname = V;
lastChange = "2024-03-15 18:54:27 +0000";
layers = (
{
layerId = m01;
shapes = (
{
closed = 1;
nodes = (
(388,0,l),
(404,16,l),
(668,708,l),
(668,784,l),
(652,800,l),
(592,800,l),
(576,784,l),
(352,160,l),
(332,160,l),
(108,784,l),
(92,800,l),
(32,800,l),
(16,784,l),
(16,708,l),
(276,16,l),
(292,0,l)
);
}
);
width = 684;
}
);
unicode = 86;
},
{
color = 5;
glyphname = W;
lastChange = "2024-03-15 19:03:57 +0000";
layers = (
{
layerId = m01;
shapes = (
{
closed = 1;
nodes = (
(308,0,l),
(324,16,l),
(492,616,l),
(508,616,l),
(676,16,l),
(692,0,l),
(788,0,l),
(804,16,l),
(984,708,l),
(984,784,l),
(968,800,l),
(912,800,l),
(896,784,l),
(748,208,l),
(732,208,l),
(568,784,l),
(552,800,l),
(448,800,l),
(432,784,l),
(268,208,l),
(252,208,l),
(104,784,l),
(88,800,l),
(32,800,l),
(16,784,l),
(16,708,l),
(196,16,l),
(212,0,l)
);
}
);
width = 1000;
}
);
unicode = 87;
},
{
color = 5;
glyphname = X;
lastChange = "2024-03-15 19:06:42 +0000";
layers = (
{
layerId = m01;
shapes = (
{
closed = 1;
nodes = (
(72,0,l),
(96,16,l),
(332,320,l),
(348,320,l),
(584,16,l),
(608,0,l),
(648,0,l),
(664,16,l),
(664,92,l),
(416,400,l),
(416,420,l),
(656,708,l),
(656,784,l),
(640,800,l),
(596,800,l),
(572,784,l),
(348,492,l),
(332,492,l),
(104,784,l),
(80,800,l),
(40,800,l),
(24,784,l),
(24,708,l),
(264,420,l),
(264,400,l),
(16,92,l),
(16,16,l),
(32,0,l)
);
}
);
width = 680;
}
);
unicode = 88;
},
{
color = 5;
glyphname = Y;
lastChange = "2024-03-15 19:16:31 +0000";
layers = (
{
layerId = m01;
shapes = (
{
closed = 1;
nodes = (
(608,708,l),
(608,784,l),
(592,800,l),
(552,800,l),
(528,784,l),
(324,448,l),
(300,448,l),
(96,784,l),
(72,800,l),
(32,800,l),
(16,784,l),
(16,708,l),
(256,320,l),
(256,16,l),
(272,0,l),
(352,0,l),
(368,16,l),
(368,320,l)
);
}
);
width = 624;
}
);
unicode = 89;
},
{
color = 5;
glyphname = Z;
lastChange = "2024-03-15 19:17:27 +0000";
layers = (
{
layerId = m01;
shapes = (
{
closed = 1;
nodes = (
(572,0,l),
(588,16,l),
(588,88,l),
(572,104,l),
(156,104,l),
(156,120,l),
(552,676,l),
(568,712,l),
(568,784,l),
(552,800,l),
(44,800,l),
(28,784,l),
(28,712,l),
(44,696,l),
(428,696,l),
(428,680,l),
(28,128,l),
(16,104,l),
(16,16,l),
(32,0,l)
);
}
);
width = 604;
}
);
unicode = 90;
},
{
color = 5;
glyphname = a;
kernLeft = a;
kernRight = a;
lastChange = "2024-04-14 07:51:40 +0000";
layers = (
{
layerId = m01;
shapes = (
{
closed = 1;
nodes = (
(328,-16,o),
(380,36,o),
(404,68,c),
(416,68,l),
(424,20,o),
(452,0,o),
(512,0,cs),
(528,0,l),
(544,16,l),
(544,72,l),
(528,88,l),
(512,88,o),
(504,96,o),
(504,112,cs),
(504,392,ls),
(504,528,o),
(440,592,o),
(288,592,cs),
(176,592,o),
(76,536,o),
(76,424,cs),
(76,416,l),
(92,400,l),
(152,400,l),
(168,416,l),
(168,424,ls),
(168,476,o),
(216,508,o),
(288,508,cs),
(368,508,o),
(404,476,o),
(404,400,cs),
(404,356,l),
(392,344,l),
(288,344,ls),
(136,344,o),
(32,296,o),
(32,168,cs),
(32,56,o),
(120,-16,o),
(232,-16,cs)
);
},
{
closed = 1;
nodes = (
(184,68,o),
(136,104,o),
(136,168,cs),
(136,232,o),
(176,268,o),
(288,268,cs),
(392,268,l),
(404,256,l),
(404,208,ls),
(404,136,o),
(344,68,o),
(248,68,cs)
);
}
);
width = 552;
}
);
unicode = 97;
},
{
color = 5;
glyphname = aacute;
kernLeft = a;
kernRight = a;
lastChange = "2024-03-14 05:28:30 +0000";
layers = (
{
layerId = m01;
shapes = (
{
ref = a;
},
{
closed = 1;
nodes = (
(312,656,l),
(344,672,l),
(408,800,l),
(408,816,l),
(392,832,l),
(336,832,l),
(304,816,l),
(248,688,l),
(248,672,l),
(264,656,l)
);
}
);
width = 568;
}
);
unicode = 225;
},
{
color = 5;
glyphname = b;
lastChange = "2024-03-28 18:34:51 +0000";
layers = (
{
layerId = m01;
shapes = (
{
closed = 1;
nodes = (
(64,760,l),
(64,16,l),
(80,0,l),
(144,0,l),
(160,16,l),
(168,56,l),
(180,56,l),
(208,16,o),
(256,-16,o),
(328,-16,cs),
(476,-16,o),
(564,112,o),
(564,288,cs),
(564,464,o),
(480,592,o),
(328,592,cs),
(256,592,o),
(208,552,o),
(180,512,c),
(168,512,l),
(168,760,l),
(152,776,l),
(80,776,l)
);
},
{
closed = 1;
nodes = (
(408,500,o),
(460,412,o),
(460,288,cs),
(460,160,o),
(408,76,o),
(312,76,cs),
(224,76,o),
(160,160,o),
(160,288,cs),
(160,412,o),
(224,500,o),
(312,500,cs)
);
}
);
width = 596;
}
);
unicode = 98;
},
{
color = 5;
glyphname = c;
kernLeft = o;
kernRight = c;
lastChange = "2024-03-28 19:14:27 +0000";
layers = (
{
layerId = m01;
shapes = (
{
closed = 1;
nodes = (
(452,-16,o),
(540,80,o),
(556,184,c),
(540,200,l),
(464,200,l),
(448,184,l),
(440,136,o),
(392,76,o),
(300,76,cs),
(188,76,o),
(136,156,o),
(136,288,cs),
(136,420,o),
(188,500,o),
(300,500,cs),
(392,500,o),
(440,440,o),
(448,392,c),
(464,376,l),
(540,376,l),
(556,392,l),
(540,496,o),
(452,592,o),
(300,592,cs),
(124,592,o),
(32,464,o),
(32,288,cs),
(32,104,o),
(128,-16,o),
(300,-16,cs)
);
}
);
width = 584;
},
{
associatedMasterId = m01;
layerId = "76AB318C-2308-45C6-8374-9EA02209C007";
name = "Mar 25, 24 at 02:20";
shapes = (
{
closed = 1;
nodes = (
(476,-16,o),
(568,112,o),
(568,288,cs),
(568,464,o),
(476,592,o),
(300,592,cs),
(124,592,o),
(32,464,o),
(32,288,cs),
(32,112,o),
(124,-16,o),
(300,-16,cs)
);
},
{
closed = 1;
nodes = (
(180,76,o),
(136,168,o),
(136,288,cs),
(136,408,o),
(180,500,o),
(300,500,cs),
(420,500,o),
(464,408,o),
(464,288,cs),
(464,168,o),
(420,76,o),
(300,76,cs)
);
}
);
visible = 1;
width = 600;
}
);
unicode = 99;
},
{
color = 5;
glyphname = d;
lastChange = "2024-03-28 18:11:25 +0000";
layers = (
{
layerId = m01;
shapes = (
{
closed = 1;
nodes = (
(340,-16,o),
(388,16,o),
(416,56,c),
(428,56,l),
(436,16,l),
(452,0,l),
(516,0,l),
(532,16,l),
(532,760,l),
(516,776,l),
(444,776,l),
(428,760,l),
(428,512,l),
(416,512,l),
(388,552,o),
(340,592,o),
(268,592,cs),
(116,592,o),
(32,464,o),
(32,288,cs),
(32,112,o),
(120,-16,o),
(268,-16,cs)
);
},
{
closed = 1;
nodes = (
(188,76,o),
(136,160,o),
(136,288,cs),
(136,412,o),
(188,500,o),
(284,500,cs),
(372,500,o),
(436,412,o),
(436,288,cs),
(436,160,o),
(372,76,o),
(284,76,cs)
);
}
);
width = 596;
}
);
unicode = 100;
},
{
color = 5;
glyphname = e;
kernLeft = o;
kernRight = o;
lastChange = "2024-04-14 06:21:57 +0000";
layers = (
{
layerId = m01;
shapes = (
{
closed = 1;
nodes = (
(136,340,l),
(144,428,o),
(200,500,o),
(300,500,cs),
(400,500,o),
(456,428,o),
(464,340,c),
(452,328,l),
(148,328,l)
);
},
{
closed = 1;
nodes = (
(440,-16,o),
(540,76,o),
(552,160,c),
(536,176,l),
(468,176,l),
(452,164,l),
(432,116,o),
(372,76,o),
(300,76,cs),
(200,76,o),
(136,156,o),
(136,240,c),
(148,252,l),
(552,252,l),
(568,268,l),
(568,288,ls),
(568,464,o),
(476,592,o),
(300,592,cs),
(124,592,o),
(32,464,o),
(32,288,cs),
(32,112,o),
(124,-16,o),
(300,-16,cs)
);
}
);
width = 600;
},
{
associatedMasterId = m01;
layerId = "928E4258-B9EF-48BD-8062-CF1ACF70FDB5";
name = "Mar 13, 24 at 16:45";
shapes = (
{
closed = 1;
nodes = (
(476,-16,o),
(568,112,o),
(568,288,cs),
(568,464,o),
(476,592,o),
(300,592,cs),
(124,592,o),
(32,464,o),
(32,288,cs),
(32,112,o),
(124,-16,o),
(300,-16,cs)
);
},
{
closed = 1;
nodes = (
(180,76,o),
(136,168,o),
(136,288,cs),
(136,408,o),
(180,500,o),
(300,500,cs),
(420,500,o),
(464,408,o),
(464,288,cs),
(464,168,o),
(420,76,o),
(300,76,cs)
);
}
);
visible = 1;
width = 600;
}
);
unicode = 101;
},
{
color = 5;
glyphname = f;
kernLeft = f;
kernRight = f;
lastChange = "2024-04-03 03:56:40 +0000";
layers = (
{
layerId = m01;
shapes = (
{
closed = 1;
nodes = (
(192,0,l),
(208,16,l),
(208,476,l),
(220,488,l),
(304,488,l),
(320,504,l),
(320,560,l),
(304,576,l),
(220,576,l),
(208,588,l),
(208,624,ls),
(208,656,o),
(220,684,o),
(252,684,cs),
(304,684,l),
(320,700,l),
(320,756,l),
(304,772,l),
(252,772,ls),
(160,772,o),
(104,720,o),
(104,624,cs),
(104,588,l),
(92,576,l),
(32,576,l),
(16,560,l),
(16,504,l),
(32,488,l),
(96,488,l),
(104,476,l),
(104,16,l),
(120,0,l)
);
}
);
width = 336;
}
);
unicode = 102;
},
{
color = 5;
glyphname = g;
kernLeft = g;
kernRight = g;
lastChange = "2024-04-14 21:08:37 +0000";
layers = (
{
layerId = m01;
shapes = (
{
closed = 1;
nodes = (
(468,-216,o),
(532,-116,o),
(532,48,cs),
(532,560,l),
(516,576,l),
(464,576,l),
(448,560,l),
(432,512,l),
(416,512,l),
(392,556,o),
(340,592,o),
(268,592,cs),
(116,592,o),
(32,464,o),
(32,288,cs),
(32,112,o),
(120,-16,o),
(268,-16,cs),
(336,-16,o),
(396,16,o),
(416,64,c),
(428,64,l),
(428,56,ls),
(428,-100,o),
(368,-132,o),
(284,-132,cs),
(220,-132,o),
(172,-116,o),
(152,-68,c),
(136,-52,l),
(76,-52,l),
(60,-68,l),
(60,-84,l),
(72,-156,o),
(176,-216,o),
(272,-216,cs)
);
},
{
closed = 1;
nodes = (
(188,76,o),
(136,160,o),
(136,288,cs),
(136,412,o),
(188,500,o),
(284,500,cs),
(372,500,o),
(436,412,o),
(436,288,cs),
(436,160,o),
(372,76,o),
(284,76,cs)
);
}
);
width = 580;
},
{
associatedMasterId = m01;
layerId = "C19FDEAA-47BF-434E-A717-FE03DC2ED072";
name = "Mar 25, 24 at 15:29";
shapes = (
{
closed = 1;
nodes = (
(216,-120,o),
(184,-108,o),
(160,-64,c),
(152,-52,l),
(60,-52,l),
(48,-64,l),
(60,-152,o),
(136,-220,o),
(272,-220,cs),
(408,-220,o),
(532,-144,o),
(532,80,cs),
(532,564,l),
(520,576,l),
(444,576,l),
(428,564,l),
(420,520,l),
(408,520,l),
(408,520,o),
(360,588,o),
(264,588,cs),
(104,588,o),
(16,464,o),
(16,296,cs),
(16,124,o),
(104,4,o),
(264,4,cs),
(360,4,o),
(408,72,o),
(408,72,c),
(420,72,l),
(420,-52,o),
(376,-120,o),
(272,-120,cs)
);
},
{
closed = 1;
nodes = (
(420,160,o),
(360,104,o),
(272,104,cs),
(184,104,o),
(128,172,o),
(128,296,cs),
(128,416,o),
(184,484,o),
(272,484,cs),
(360,484,o),
(420,432,o),
(420,296,cs)
);
}
);
width = 588;
},
{
associatedMasterId = m01;
layerId = "256E6239-4BF3-46C8-B592-65A1B0EE23F7";
name = "Apr 14, 24 at 14:05";
shapes = (
{
closed = 1;
nodes = (
(532,-184,l),
(532,560,l),
(516,576,l),
(464,576,l),
(448,560,l),
(432,512,l),
(416,512,l),
(392,556,o),
(340,592,o),
(268,592,cs),
(120,592,o),
(32,464,o),
(32,288,cs),
(32,112,o),
(116,-16,o),
(268,-16,cs),
(340,-16,o),
(388,20,o),
(416,64,c),
(428,64,l),
(428,-184,l),
(444,-200,l),
(516,-200,l)
);
},
{
closed = 1;
nodes = (
(188,76,o),
(136,164,o),
(136,288,cs),
(136,416,o),
(188,500,o),
(284,500,cs),
(372,500,o),
(436,416,o),
(436,288,cs),
(436,164,o),
(372,76,o),
(284,76,cs)
);
}
);
visible = 1;
width = 580;
}
);
unicode = 103;
},
{
color = 5;
glyphname = h;
lastChange = "2024-04-14 05:17:14 +0000";
layers = (
{
layerId = m01;
shapes = (
{
closed = 1;
nodes = (
(136,0,l),
(152,16,l),
(152,352,ls),
(152,448,o),
(196,504,o),
(292,504,cs),
(388,504,o),
(432,448,o),
(432,352,cs),
(432,16,l),
(448,0,l),
(520,0,l),
(536,16,l),
(536,336,ls),
(536,496,o),
(484,592,o),
(324,592,cs),
(252,592,o),
(200,560,o),
(164,512,c),
(152,512,l),
(152,784,l),
(136,800,l),
(64,800,l),
(48,784,l),
(48,16,l),
(64,0,l)
);
}
);
width = 576;
}
);
unicode = 104;
},
{
color = 5;
glyphname = i;
lastChange = "2024-04-14 09:16:13 +0000";
layers = (
{
layerId = m01;
shapes = (
{
closed = 1;
nodes = (
(136,684,l),
(152,700,l),
(152,784,l),
(136,800,l),
(56,800,l),
(40,784,l),
(40,700,l),
(56,684,l)
);
},
{
closed = 1;
nodes = (
(132,0,l),
(148,16,l),
(148,560,l),
(132,576,l),
(60,576,l),
(44,560,l),
(44,16,l),
(60,0,l)
);
}
);
width = 192;
}
);
unicode = 105;
},
{
color = 5;
glyphname = idotless;
lastChange = "2024-03-14 05:28:30 +0000";
layers = (
{
layerId = m01;
shapes = (
{
closed = 1;
nodes = (
(160,0,l),
(176,16,l),
(176,560,l),
(160,576,l),
(80,576,l),
(64,560,l),
(64,16,l),
(80,0,l)
);
}
);
width = 240;
}
);
unicode = 305;
},
{
color = 5;
glyphname = iacute;
lastChange = "2024-03-14 05:28:30 +0000";
layers = (
{
layerId = m01;
shapes = (
{
ref = idotless;
},
{
closed = 1;
nodes = (
(144,656,l),
(176,672,l),
(240,800,l),
(240,816,l),
(224,832,l),
(168,832,l),
(136,816,l),
(80,688,l),
(80,672,l),
(96,656,l)
);
}
);
width = 240;
}
);
unicode = 237;
},
{
color = 5;
glyphname = j;
lastChange = "2024-03-15 06:34:57 +0000";
layers = (
{
layerId = m01;
shapes = (
{
closed = 1;
nodes = (
(24,-200,ls),
(104,-200,o),
(176,-156,o),
(176,-52,cs),
(176,560,l),
(160,576,l),
(80,576,l),
(64,560,l),
(64,-52,ls),
(64,-88,o),
(52,-100,o),
(24,-100,cs),
(-28,-100,l),
(-44,-116,l),
(-44,-184,l),
(-28,-200,l)
);
},
{
closed = 1;
nodes = (
(160,656,l),
(176,672,l),
(176,784,l),
(160,800,l),
(80,800,l),
(64,784,l),
(64,672,l),
(80,656,l)
);
}
);
width = 232;
}
);
unicode = 106;
},
{
color = 5;
glyphname = k;
kernLeft = k;
kernRight = k;
lastChange = "2024-04-05 01:06:16 +0000";
layers = (
{
layerId = m01;
shapes = (
{
closed = 1;
nodes = (
(152,0,l),
(168,16,l),
(168,144,l),
(264,244,l),
(280,244,l),
(456,12,l),
(472,0,l),
(504,0,l),
(520,16,l),
(520,80,l),
(348,312,l),
(348,332,l),
(512,504,l),
(512,560,l),
(496,576,l),
(456,576,l),
(184,292,l),
(168,292,l),
(168,784,l),
(152,800,l),
(80,800,l),
(64,784,l),
(64,16,l),
(80,0,l)
);
}
);
width = 544;
},
{
associatedMasterId = m01;
layerId = "F2BFE652-8A33-44FC-82CF-E776843FA570";
name = "Mar 27, 24 at 21:12";
shapes = (
{
closed = 1;
nodes = (
(148,0,l),
(164,16,l),
(164,144,l),
(508,504,l),
(508,560,l),
(492,576,l),
(452,576,l),
(180,296,l),
(164,296,l),
(164,784,l),
(148,800,l),
(76,800,l),
(60,784,l),
(60,16,l),
(76,0,l)
);
}
);
visible = 1;
width = 540;
}
);
unicode = 107;
},
{
color = 5;
glyphname = l;
lastChange = "2024-03-28 17:48:26 +0000";
layers = (
{
layerId = m01;
shapes = (
{
closed = 1;
nodes = (
(152,0,l),
(168,16,l),
(168,784,l),
(152,800,l),
(80,800,l),
(64,784,l),
(64,16,l),
(80,0,l)
);
}
);
width = 232;
}
);
unicode = 108;
},
{
color = 5;
glyphname = m;
lastChange = "2024-03-31 01:39:03 +0000";
layers = (
{
layerId = m01;
shapes = (
{
closed = 1;
nodes = (
(152,0,l),
(168,16,l),
(168,352,ls),
(168,448,o),
(192,504,o),
(288,504,cs),
(384,504,o),
(408,448,o),
(408,352,cs),
(408,16,l),
(424,0,l),
(496,0,l),
(512,16,l),
(512,352,ls),
(512,448,o),
(536,504,o),
(632,504,cs),
(728,504,o),
(752,448,o),
(752,352,cs),
(752,16,l),
(768,0,l),
(840,0,l),
(856,16,l),
(856,352,ls),
(856,496,o),
(808,592,o),
(648,592,cs),
(568,592,o),
(512,560,o),
(488,512,c),
(472,512,l),
(456,560,o),
(400,592,o),
(320,592,cs),
(240,592,o),
(196,552,o),
(180,512,c),
(164,512,l),
(148,560,l),
(132,576,l),
(80,576,l),
(64,560,l),
(64,16,l),
(80,0,l)
);
}
);
width = 904;
}
);
unicode = 109;
},
{
color = 5;
glyphname = n;
kernLeft = n;
kernRight = n;
lastChange = "2024-04-03 04:32:13 +0000";
layers = (
{
layerId = m01;
shapes = (
{
closed = 1;
nodes = (
(152,0,l),
(168,16,l),
(168,352,ls),
(168,448,o),
(212,504,o),
(308,504,cs),
(404,504,o),
(448,448,o),
(448,352,cs),
(448,16,l),
(464,0,l),
(536,0,l),
(552,16,l),
(552,336,ls),
(552,496,o),
(500,592,o),
(340,592,cs),
(260,592,o),
(208,560,o),
(176,512,c),
(164,512,l),
(148,560,l),
(132,576,l),
(80,576,l),
(64,560,l),
(64,16,l),
(80,0,l)
);
}
);
width = 600;
}
);
unicode = 110;
},
{
color = 5;
glyphname = o;
kernLeft = o;
kernRight = o;
lastChange = "2024-03-28 18:35:22 +0000";
layers = (
{
layerId = m01;
shapes = (
{
closed = 1;
nodes = (
(476,-16,o),
(568,112,o),
(568,288,cs),
(568,464,o),
(476,592,o),
(300,592,cs),
(124,592,o),
(32,464,o),
(32,288,cs),
(32,112,o),
(124,-16,o),
(300,-16,cs)
);
},
{
closed = 1;
nodes = (
(180,76,o),
(136,168,o),
(136,288,cs),
(136,408,o),
(180,500,o),
(300,500,cs),
(420,500,o),
(464,408,o),
(464,288,cs),
(464,168,o),
(420,76,o),
(300,76,cs)
);
}
);
width = 600;
}
);
unicode = 111;
},
{
color = 5;
glyphname = p;
kernLeft = p;
kernRight = p;
lastChange = "2024-04-14 21:10:44 +0000";
layers = (
{
layerId = m01;
shapes = (
{
closed = 1;
nodes = (
(136,-200,l),
(152,-184,l),
(152,64,l),
(164,64,l),
(192,20,o),
(240,-16,o),
(312,-16,cs),
(464,-16,o),
(548,112,o),
(548,288,cs),
(548,464,o),
(460,592,o),
(312,592,cs),
(240,592,o),
(188,556,o),
(164,512,c),
(148,512,l),
(132,560,l),
(116,576,l),
(64,576,l),
(48,560,l),
(48,-184,l),
(64,-200,l)
);
},
{
closed = 1;
nodes = (
(208,76,o),
(144,164,o),
(144,288,cs),
(144,416,o),
(208,500,o),
(296,500,cs),
(392,500,o),
(444,416,o),
(444,288,cs),
(444,164,o),
(392,76,o),
(296,76,cs)
);
}
);
width = 580;
},
{
associatedMasterId = m01;
layerId = "D3BFE042-7938-4F42-8C60-3775559CC9EE";
name = "Mar 24, 24 at 21:35";
shapes = (
{
closed = 1;
nodes = (
(464,-16,o),
(556,112,o),
(556,288,cs),
(556,464,o),
(464,592,o),
(288,592,cs),
(112,592,o),
(20,464,o),
(20,288,cs),
(20,112,o),
(112,-16,o),
(288,-16,cs)
);
},
{
closed = 1;
nodes = (
(168,76,o),
(124,168,o),
(124,288,cs),
(124,408,o),
(168,500,o),
(288,500,cs),
(408,500,o),
(452,408,o),
(452,288,cs),
(452,168,o),
(408,76,o),
(288,76,cs)
);
}
);
visible = 1;
width = 592;
}
);
unicode = 112;
},
{
color = 5;
glyphname = q;
lastChange = "2024-03-15 09:11:44 +0000";
layers = (
{
layerId = m01;
shapes = (
{
closed = 1;
nodes = (
(464,576,l),
(448,560,l),
(432,520,l),
(416,520,l),
(392,560,o),
(344,592,o),
(272,592,cs),
(124,592,o),
(24,464,o),
(24,288,cs),
(24,112,o),
(120,-16,o),
(272,-16,cs),
(344,-16,o),
(392,24,o),
(416,64,c),
(432,64,l),
(432,-184,l),
(448,-200,l),
(528,-200,l),
(544,-184,l),
(544,560,l),
(528,576,l)
);
},
{
closed = 1;
nodes = (
(376,488,o),
(440,416,o),
(440,288,cs),
(440,164,o),
(376,88,o),
(288,88,cs),
(192,88,o),
(136,164,o),
(136,288,cs),
(136,416,o),
(192,488,o),
(288,488,cs)
);
}
);
width = 592;
}
);
unicode = 113;
},
{
color = 5;
glyphname = r;
kernLeft = n;
kernRight = r;
lastChange = "2024-04-14 09:15:10 +0000";
layers = (
{
layerId = m01;
shapes = (
{
closed = 1;
nodes = (
(128,0,l),
(144,16,l),
(144,320,ls),
(144,432,o),
(180,488,o),
(252,488,cs),
(308,488,l),
(324,504,l),
(324,560,l),
(308,576,l),
(272,576,ls),
(224,576,o),
(192,560,o),
(156,512,c),
(140,512,l),
(124,560,l),
(108,576,l),
(56,576,l),
(40,560,l),
(40,16,l),
(56,0,l)
);
}
);
width = 332;
},
{
associatedMasterId = m01;
layerId = "EFD813B6-53D8-4E5A-A399-47427410ECAA";
name = "Mar 24, 24 at 13:29";
shapes = (
{
closed = 1;
nodes = (
(144,0,l),
(160,16,l),
(160,352,ls),
(160,448,o),
(204,504,o),
(300,504,cs),
(396,504,o),
(440,448,o),
(440,352,cs),
(440,16,l),
(456,0,l),
(528,0,l),
(544,16,l),
(544,336,ls),
(544,496,o),
(492,592,o),
(332,592,cs),
(260,592,o),
(196,560,o),
(160,512,c),
(144,512,l),
(128,560,l),
(112,576,l),
(72,576,l),
(56,560,l),
(56,16,l),
(72,0,l)
);
}
);
visible = 1;
width = 360;
}
);
unicode = 114;
},
{
color = 5;
glyphname = s;
kernLeft = s;
kernRight = s;
lastChange = "2024-03-28 18:59:45 +0000";
layers = (
{
layerId = m01;
shapes = (
{
closed = 1;
nodes = (
(420,-16,o),
(488,76,o),
(488,160,cs),
(488,256,o),
(432,308,o),
(320,332,cs),
(208,356,o),
(148,368,o),
(148,424,cs),
(148,472,o),
(200,508,o),
(264,508,cs),
(344,508,o),
(380,476,o),
(380,416,c),
(396,400,l),
(464,400,l),
(480,416,l),
(480,536,o),
(392,592,o),
(264,592,cs),
(104,592,o),
(48,500,o),
(48,424,cs),
(48,328,o),
(120,284,o),
(232,260,cs),
(344,236,o),
(388,216,o),
(388,160,cs),
(388,116,o),
(344,68,o),
(264,68,cs),
(184,68,o),
(132,96,o),
(132,176,c),
(116,192,l),
(48,192,l),
(32,176,l),
(32,48,o),
(116,-16,o),
(264,-16,cs)
);
}
);
width = 520;
}
);
unicode = 115;
},
{
color = 5;
glyphname = t;
kernLeft = t;
kernRight = t;
lastChange = "2024-04-03 04:32:34 +0000";
layers = (
{
layerId = m01;
shapes = (
{
closed = 1;
nodes = (
(320,0,l),
(336,16,l),
(336,72,l),
(320,88,l),
(256,88,ls),
(224,88,o),
(208,104,o),
(208,136,cs),
(208,476,l),
(220,488,l),
(320,488,l),
(336,504,l),
(336,560,l),
(320,576,l),
(220,576,l),
(208,588,l),
(208,672,l),
(192,688,l),
(120,688,l),
(104,672,l),
(104,588,l),
(92,576,l),
(32,576,l),
(16,560,l),
(16,504,l),
(32,488,l),
(92,488,l),
(104,476,l),
(104,136,ls),
(104,40,o),
(160,0,o),
(256,0,cs)
);
}
);
width = 360;
}
);
unicode = 116;
},
{
color = 5;
glyphname = u;
lastChange = "2024-03-31 01:00:44 +0000";
layers = (
{
layerId = m01;
shapes = (
{
closed = 1;
nodes = (
(448,576,l),
(432,560,l),
(432,224,ls),
(432,128,o),
(388,72,o),
(292,72,cs),
(196,72,o),
(152,128,o),
(152,224,cs),
(152,560,l),
(136,576,l),
(64,576,l),
(48,560,l),
(48,240,ls),
(48,80,o),
(100,-16,o),
(260,-16,cs),
(332,-16,o),
(396,16,o),
(432,64,c),
(448,64,l),
(464,16,l),
(480,0,l),
(520,0,l),
(536,16,l),
(536,560,l),
(520,576,l)
);
}
);
width = 600;
}
);
unicode = 117;
},
{
color = 5;
glyphname = v;
kernLeft = v;
kernRight = v;
lastChange = "2024-03-28 01:20:47 +0000";
layers = (
{
layerId = m01;
shapes = (
{
closed = 1;
nodes = (
(312,0,l),
(328,16,l),
(512,504,l),
(512,560,l),
(496,576,l),
(448,576,l),
(432,560,l),
(272,120,l),
(256,120,l),
(96,560,l),
(80,576,l),
(32,576,l),
(16,560,l),
(16,504,l),
(200,16,l),
(216,0,l)
);
}
);
width = 528;
},
{
associatedMasterId = m01;
layerId = "AB412B74-10CC-4135-B60A-75AADCD4278F";
name = "Mar 27, 24 at 18:17";
shapes = (
{
closed = 1;
nodes = (
(96,-200,ls),
(224,-200,o),
(256,-196,o),
(328,0,cs),
(512,500,l),
(512,560,l),
(496,576,l),
(444,576,l),
(428,560,l),
(272,124,l),
(256,124,l),
(104,560,l),
(88,576,l),
(32,576,l),
(16,560,l),
(16,500,l),
(208,-32,l),
(208,-48,l),
(200,-72,ls),
(192,-100,o),
(168,-112,o),
(132,-112,cs),
(80,-112,l),
(64,-128,l),
(64,-184,l),
(80,-200,l)
);
}
);
visible = 1;
width = 528;
}
);
unicode = 118;
},
{
color = 5;
glyphname = w;
kernLeft = w;
kernRight = w;
lastChange = "2024-04-02 04:55:58 +0000";
layers = (
{
layerId = m01;
shapes = (
{
closed = 1;
nodes = (
(260,0,l),
(276,16,l),
(392,440,l),
(408,440,l),
(524,16,l),
(540,0,l),
(648,0,l),
(664,16,l),
(784,500,l),
(784,560,l),
(768,576,l),
(708,576,l),
(692,560,l),
(596,120,l),
(580,120,l),
(464,560,l),
(448,576,l),
(352,576,l),
(336,560,l),
(216,120,l),
(204,120,l),
(108,560,l),
(92,576,l),
(32,576,l),
(16,560,l),
(16,500,l),
(136,16,l),
(152,0,l)
);
}
);
width = 800;
}
);
unicode = 119;
},
{
color = 5;
glyphname = x;
kernLeft = x;
kernRight = x;
lastChange = "2024-04-04 19:09:55 +0000";
layers = (
{
layerId = m01;
shapes = (
{
closed = 1;
nodes = (
(76,0,l),
(260,220,l),
(276,220,l),
(456,0,l),
(504,0,l),
(520,16,l),
(520,80,l),
(512,96,l),
(340,292,l),
(340,308,l),
(492,480,l),
(500,496,l),
(500,560,l),
(484,576,l),
(440,576,l),
(272,372,l),
(256,372,l),
(96,576,l),
(52,576,l),
(36,560,l),
(36,496,l),
(44,480,l),
(192,300,l),
(192,284,l),
(24,96,l),
(16,80,l),
(16,16,l),
(32,0,l)
);
}
);
width = 536;
},
{
associatedMasterId = m01;
layerId = "E0C175E4-24A6-4BF2-9904-230F6FBDD65D";
name = "Apr 4, 24 at 11:54";
shapes = (
{
closed = 1;
nodes = (
(472,0,l),
(520,0,l),
(536,16,l),
(536,80,l),
(528,96,l),
(104,576,l),
(60,576,l),
(44,560,l),
(44,496,l),
(52,480,l)
);
}
);
visible = 1;
width = 560;
},
{
associatedMasterId = m01;
layerId = "33405C69-6162-4869-B6AD-AD96D677EE7A";
name = "Apr 4, 24 at 11:55";
shapes = (
{
closed = 1;
nodes = (
(84,0,l),
(508,480,l),
(516,496,l),
(516,560,l),
(500,576,l),
(456,576,l),
(32,96,l),
(24,80,l),
(24,16,l),
(40,0,l)
);
}
);
visible = 1;
width = 560;
}
);
unicode = 120;
},
{
color = 5;
glyphname = y;
kernLeft = y;
kernRight = y;
lastChange = "2024-04-14 21:10:38 +0000";
layers = (
{
layerId = m01;
shapes = (
{
closed = 1;
nodes = (
(128,-200,ls),
(224,-200,o),
(252,-196,o),
(324,0,cs),
(512,500,l),
(512,560,l),
(496,576,l),
(440,576,l),
(424,560,l),
(272,144,l),
(256,144,l),
(104,560,l),
(88,576,l),
(32,576,l),
(16,560,l),
(16,500,l),
(204,0,l),
(212,-16,l),
(196,-60,ls),
(184,-96,o),
(160,-112,o),
(128,-112,cs),
(80,-112,l),
(64,-128,l),
(64,-184,l),
(80,-200,l)
);
}
);
width = 528;
},
{
associatedMasterId = m01;
layerId = "C6739020-F6E6-4C6E-83E7-897205869B40";
name = "Mar 26, 24 at 11:24";
shapes = (
{
closed = 1;
nodes = (
(148,-200,l),
(252,-200,l),
(544,576,l),
(440,576,l)
);
},
{
closed = 1;
nodes = (
(-8,576,l),
(280,-200,l),
(384,-200,l),
(96,576,l)
);
}
);
visible = 1;
width = 536;
}
);
unicode = 121;
},
{
color = 5;
glyphname = z;
kernLeft = z;
kernRight = z;
lastChange = "2024-04-14 20:54:50 +0000";
layers = (
{
layerId = m01;
shapes = (
{
closed = 1;
nodes = (
(444,0,l),
(460,16,l),
(460,72,l),
(444,88,l),
(152,88,l),
(152,104,l),
(432,452,l),
(448,480,l),
(448,560,l),
(432,576,l),
(48,576,l),
(32,560,l),
(32,504,l),
(48,488,l),
(336,488,l),
(336,476,l),
(32,112,l),
(24,88,l),
(24,16,l),
(40,0,l)
);
}
);
width = 480;
}
);
unicode = 122;
},
{
color = 5;
glyphname = a.001;
kernLeft = a;
kernRight = a;
lastChange = "2024-03-14 05:28:30 +0000";
layers = (
{
layerId = m01;
shapes = (
{
closed = 1;
nodes = (
(320,-16,o),
(360,24,o),
(392,56,c),
(408,56,l),
(424,16,l),
(440,0,l),
(488,0,l),
(504,16,l),
(504,392,ls),
(504,528,o),
(432,592,o),
(280,592,cs),
(112,592,o),
(48,512,o),
(48,432,cs),
(48,416,l),
(64,400,l),
(144,400,l),
(160,416,l),
(160,424,ls),
(160,464,o),
(208,488,o),
(280,488,cs),
(360,488,o),
(392,464,o),
(392,376,cs),
(392,360,l),
(376,344,l),
(280,344,ls),
(128,344,o),
(24,296,o),
(24,168,cs),
(24,56,o),
(112,-16,o),
(224,-16,cs)
);
},
{
closed = 1;
nodes = (
(176,88,o),
(136,104,o),
(136,168,cs),
(136,232,o),
(168,248,o),
(280,248,cs),
(376,248,l),
(392,232,l),
(392,208,ls),
(392,136,o),
(336,88,o),
(240,88,cs)
);
}
);
width = 560;
}
);
},
{
color = 5;
glyphname = zero;
kernLeft = zero;
kernRight = zero;
lastChange = "2024-05-17 00:19:54 +0000";
layers = (
{
layerId = m01;
shapes = (
{
closed = 1;
nodes = (
(476,-16,o),
(592,92,o),
(592,400,cs),
(592,708,o),
(476,816,o),
(316,816,cs),
(156,816,o),
(40,708,o),
(40,400,cs),
(40,92,o),
(156,-16,o),
(316,-16,cs)
);
},
{
closed = 1;
nodes = (
(212,84,o),
(156,172,o),
(156,400,cs),
(156,628,o),
(212,716,o),
(316,716,cs),
(420,716,o),
(476,628,o),
(476,400,cs),
(476,172,o),
(420,84,o),
(316,84,cs)
);
}
);
width = 632;
}
);
unicode = 48;
},
{
color = 5;
glyphname = one;
kernLeft = one;
kernRight = one;
lastChange = "2024-05-16 20:39:15 +0000";
layers = (
{
layerId = m01;
shapes = (
{
closed = 1;
nodes = (
(252,0,l),
(268,16,l),
(268,784,l),
(252,800,l),
(172,800,l),
(156,784,l),
(156,700,o),
(108,652,o),
(24,652,c),
(8,636,l),
(8,576,l),
(24,560,l),
(144,560,l),
(156,544,l),
(156,16,l),
(172,0,l)
);
}
);
width = 332;
}
);
unicode = 49;
},
{
color = 5;
glyphname = two;
kernLeft = two;
kernRight = two;
lastChange = "2024-05-16 23:53:36 +0000";
layers = (
{
layerId = m01;
shapes = (
{
closed = 1;
nodes = (
(544,0,l),
(560,16,l),
(560,80,l),
(544,96,l),
(172,96,l),
(156,112,l),
(156,120,ls),
(156,160,o),
(184,208,o),
(292,256,cs),
(432,320,o),
(572,416,o),
(572,576,cs),
(572,692,o),
(496,816,o),
(308,816,cs),
(140,816,o),
(48,704,o),
(48,576,c),
(64,560,l),
(144,560,l),
(160,576,l),
(160,648,o),
(212,716,o),
(308,716,cs),
(416,716,o),
(456,656,o),
(456,576,cs),
(456,476,o),
(384,408,o),
(268,352,cs),
(92,268,o),
(32,212,o),
(32,52,cs),
(32,16,l),
(48,0,l)
);
}
);
width = 604;
}
);
unicode = 50;
},
{
color = 5;
glyphname = three;
kernLeft = three;
kernRight = three;
lastChange = "2024-05-16 23:53:51 +0000";
layers = (
{
layerId = m01;
shapes = (
{
closed = 1;
nodes = (
(524,-16,o),
(628,80,o),
(628,232,cs),
(628,336,o),
(552,396,o),
(480,416,c),
(480,432,l),
(536,460,o),
(580,508,o),
(580,592,cs),
(580,740,o),
(484,816,o),
(324,816,cs),
(208,816,o),
(60,744,o),
(60,576,c),
(76,560,l),
(156,560,l),
(172,576,l),
(172,684,o),
(256,716,o),
(324,716,cs),
(408,716,o),
(464,680,o),
(464,592,cs),
(464,516,o),
(420,464,o),
(340,464,cs),
(284,464,l),
(268,448,l),
(268,384,l),
(284,368,l),
(340,368,ls),
(420,368,o),
(512,344,o),
(512,232,cs),
(512,132,o),
(448,84,o),
(324,84,cs),
(208,84,o),
(144,144,o),
(144,232,cs),
(144,248,l),
(128,264,l),
(48,264,l),
(32,248,l),
(32,232,ls),
(32,88,o),
(144,-16,o),
(324,-16,cs)
);
}
);
width = 660;
}
);
unicode = 51;
},
{
color = 5;
glyphname = four;
kernLeft = four;
kernRight = four;
lastChange = "2024-05-16 23:54:34 +0000";
layers = (
{
layerId = m01;
shapes = (
{
closed = 1;
nodes = (
(476,0,l),
(492,16,l),
(492,172,l),
(504,184,l),
(604,184,l),
(620,200,l),
(620,264,l),
(604,280,l),
(504,280,l),
(492,292,l),
(492,784,l),
(476,800,l),
(344,800,l),
(328,784,l),
(24,280,l),
(24,200,l),
(40,184,l),
(368,184,l),
(380,172,l),
(380,16,l),
(396,0,l)
);
},
{
closed = 1;
nodes = (
(152,296,l),
(364,644,l),
(380,644,l),
(380,292,l),
(368,280,l),
(152,280,l)
);
}
);
width = 644;
}
);
unicode = 52;
},
{
color = 5;
glyphname = five;
kernLeft = five;
kernRight = five;
lastChange = "2024-05-16 23:55:01 +0000";
layers = (
{
layerId = m01;
shapes = (
{
closed = 1;
nodes = (
(468,-16,o),
(572,72,o),
(572,260,cs),
(572,412,o),
(508,532,o),
(340,532,cs),
(272,532,o),
(220,508,o),
(184,476,c),
(168,476,l),
(200,692,l),
(212,704,l),
(520,704,l),
(536,720,l),
(536,784,l),
(520,800,l),
(140,800,l),
(124,784,l),
(64,396,l),
(64,380,l),
(80,364,l),
(160,364,l),
(196,412,o),
(240,432,o),
(320,432,cs),
(420,432,o),
(456,348,o),
(456,260,cs),
(456,164,o),
(412,84,o),
(296,84,cs),
(180,84,o),
(144,144,o),
(144,216,c),
(128,232,l),
(48,232,l),
(32,216,l),
(32,56,o),
(124,-16,o),
(296,-16,cs)
);
}
);
width = 604;
}
);
unicode = 53;
},
{
color = 5;
glyphname = six;
kernLeft = six;
kernRight = six;
lastChange = "2024-05-16 23:58:37 +0000";
layers = (
{
layerId = m01;
shapes = (
{
closed = 1;
nodes = (
(484,-16,o),
(592,92,o),
(592,264,cs),
(592,424,o),
(488,520,o),
(348,520,cs),
(264,520,o),
(208,488,o),
(176,456,c),
(160,456,l),
(160,572,o),
(212,716,o),
(324,716,cs),
(412,716,o),
(448,688,o),
(460,616,c),
(476,600,l),
(556,600,l),
(572,616,l),
(560,744,o),
(468,816,o),
(324,816,cs),
(156,816,o),
(40,708,o),
(40,388,cs),
(40,80,o),
(152,-16,o),
(316,-16,cs)
);
},
{
closed = 1;
nodes = (
(244,84,o),
(164,148,o),
(164,264,cs),
(164,364,o),
(224,424,o),
(320,424,cs),
(428,424,o),
(476,364,o),
(476,264,cs),
(476,148,o),
(428,84,o),
(316,84,cs)
);
}
);
width = 632;
}
);
unicode = 54;
},
{
color = 5;
glyphname = seven;
kernLeft = seven;
kernRight = seven;
lastChange = "2024-05-17 00:21:15 +0000";
layers = (
{
layerId = m01;
shapes = (
{
closed = 1;
nodes = (
(252,0,l),
(268,16,l),
(268,304,o),
(364,544,o),
(556,688,c),
(572,704,l),
(572,784,l),
(556,800,l),
(24,800,l),
(8,784,l),
(8,720,l),
(24,704,l),
(428,704,l),
(428,688,l),
(244,540,o),
(152,304,o),
(152,16,c),
(168,0,l)
);
}
);
width = 580;
}
);
unicode = 55;
},
{
color = 5;
glyphname = eight;
kernLeft = eight;
kernRight = eight;
lastChange = "2024-05-16 23:59:25 +0000";
layers = (
{
layerId = m01;
shapes = (
{
closed = 1;
nodes = (
(520,-16,o),
(644,76,o),
(644,228,cs),
(644,340,o),
(568,404,o),
(496,420,c),
(496,436,l),
(532,456,o),
(596,504,o),
(596,596,cs),
(596,708,o),
(508,816,o),
(336,816,cs),
(164,816,o),
(76,708,o),
(76,596,cs),
(76,504,o),
(144,456,o),
(176,436,c),
(176,420,l),
(120,404,o),
(32,340,o),
(32,228,cs),
(32,76,o),
(152,-16,o),
(336,-16,cs)
);
},
{
closed = 1;
nodes = (
(244,468,o),
(192,528,o),
(192,596,cs),
(192,652,o),
(232,716,o),
(336,716,cs),
(440,716,o),
(480,652,o),
(480,596,cs),
(480,528,o),
(428,468,o),
(336,468,cs)
);
},
{
closed = 1;
nodes = (
(224,84,o),
(148,132,o),
(148,228,cs),
(148,308,o),
(224,376,o),
(336,376,cs),
(452,376,o),
(528,308,o),
(528,228,cs),
(528,132,o),
(452,84,o),
(336,84,cs)
);
}
);
width = 676;
}
);
unicode = 56;
},
{
color = 5;
glyphname = nine;
kernLeft = nine;
kernRight = nine;
lastChange = "2024-05-17 00:19:46 +0000";
layers = (
{
layerId = m01;
shapes = (
{
closed = 1;
nodes = (
(136,816,o),
(28,708,o),
(28,536,cs),
(28,376,o),
(132,280,o),
(272,280,cs),
(356,280,o),
(412,312,o),
(444,344,c),
(460,344,l),
(464,196,o),
(408,84,o),
(296,84,cs),
(208,84,o),
(172,112,o),
(160,184,c),
(144,200,l),
(64,200,l),
(48,184,l),
(60,56,o),
(152,-16,o),
(296,-16,cs),
(464,-16,o),
(580,92,o),
(580,412,cs),
(580,720,o),
(468,816,o),
(304,816,cs)
);
},
{
closed = 1;
nodes = (
(376,716,o),
(456,652,o),
(456,536,cs),
(456,436,o),
(396,376,o),
(300,376,cs),
(192,376,o),
(144,436,o),
(144,536,cs),
(144,652,o),
(192,716,o),
(304,716,cs)
);
}
);
width = 612;
}
);
unicode = 57;
},
{
color = 5;
glyphname = period;
kernLeft = period;
kernRight = period;
lastChange = "2024-03-31 05:24:10 +0000";
layers = (
{
layerId = m01;
shapes = (
{
closed = 1;
nodes = (
(136,0,l),
(152,16,l),
(152,100,l),
(136,116,l),
(48,116,l),
(32,100,l),
(32,16,l),
(48,0,l)
);
}
);
width = 184;
}
);
unicode = 46;
},
{
glyphname = comma;
kernLeft = comma;
kernRight = comma;
lastChange = "2024-04-10 23:57:48 +0000";
layers = (
{
layerId = m01;
shapes = (
{
closed = 1;
nodes = (
(80,0,l),
(92,-12,l),
(92,-28,ls),
(92,-56,o),
(72,-80,o),
(48,-80,c),
(32,-96,l),
(32,-112,l),
(48,-128,l),
(112,-128,o),
(152,-84,o),
(152,-16,cs),
(152,100,l),
(136,116,l),
(48,116,l),
(32,100,l),
(32,16,l),
(48,0,l)
);
}
);
width = 184;
}
);
unicode = 44;
},
{
color = 5;
glyphname = colon;
kernLeft = colon;
kernRight = colon;
lastChange = "2024-03-15 03:13:15 +0000";
layers = (
{
layerId = m01;
shapes = (
{
closed = 1;
nodes = (
(144,0,l),
(160,16,l),
(160,112,l),
(144,128,l),
(48,128,l),
(32,112,l),
(32,16,l),
(48,0,l)
);
},
{
closed = 1;
nodes = (
(144,448,l),
(160,464,l),
(160,560,l),
(144,576,l),
(48,576,l),
(32,560,l),
(32,464,l),
(48,448,l)
);
}
);
width = 192;
}
);
unicode = 58;
},
{
color = 5;
glyphname = slash;
kernLeft = slash;
kernRight = slash;
lastChange = "2024-03-27 00:11:03 +0000";
layers = (
{
layerId = m01;
shapes = (
{
closed = 1;
nodes = (
(44,-96,l),
(552,832,l),
(552,904,l),
(536,920,l),
(504,920,l),
(0,0,l),
(0,-80,l),
(16,-96,l)
);
}
);
width = 552;
},
{
associatedMasterId = m01;
layerId = "F560680F-80A6-404B-A264-5AA7639F77BC";
name = "Mar 26, 24 at 17:09";
shapes = (
{
closed = 1;
nodes = (
(76,0,l),
(456,712,l),
(456,784,l),
(440,800,l),
(408,800,l),
(32,96,l),
(32,16,l),
(48,0,l)
);
}
);
visible = 1;
width = 488;
}
);
unicode = 47;
},
{
color = 5;
glyphname = hyphen;
lastChange = "2024-04-10 23:54:09 +0000";
layers = (
{
layerId = m01;
shapes = (
{
closed = 1;
nodes = (
(308,256,l),
(324,272,l),
(324,336,l),
(308,352,l),
(48,352,l),
(32,336,l),
(32,272,l),
(48,256,l)
);
}
);
width = 356;
}
);
unicode = 45;
},
{
glyphname = emdash;
lastChange = "2024-03-27 01:23:39 +0000";
layers = (
{
layerId = m01;
shapes = (
{
closed = 1;
nodes = (
(928,320,l),
(944,336,l),
(944,400,l),
(928,416,l),
(32,416,l),
(16,400,l),
(16,336,l),
(32,320,l)
);
}
);
width = 960;
}
);
unicode = 8212;
},
{
glyphname = quotesinglbase;
lastChange = "2024-03-23 20:48:55 +0000";
layers = (
{
layerId = m01;
shapes = (
{
closed = 1;
nodes = (
(144,0,l),
(160,16,l),
(160,112,l),
(144,128,l),
(48,128,l),
(32,112,l),
(32,16,l),
(48,0,l)
);
}
);
width = 192;
}
);
unicode = 8218;
},
{
color = 5;
glyphname = quoteright;
kernLeft = quoteright;
kernRight = quoteright;
lastChange = "2024-04-05 00:51:33 +0000";
layers = (
{
layerId = m01;
shapes = (
{
closed = 1;
nodes = (
(80,684,l),
(92,672,l),
(92,640,o),
(80,624,o),
(48,624,c),
(32,608,l),
(32,592,l),
(48,576,l),
(112,576,o),
(152,608,o),
(152,672,cs),
(152,784,l),
(136,800,l),
(48,800,l),
(32,784,l),
(32,700,l),
(48,684,l)
);
}
